<mxfile host="app.diagrams.net" modified="2022-12-30T17:06:37.641Z" agent="5.0 (Windows NT 10.0; Win64; x64) AppleWebKit/537.36 (KHTML, like Gecko) Chrome/108.0.0.0 Safari/537.36" etag="jlDyXMnoCMZk5ySLWn3n" version="20.7.4" type="github">
  <diagram id="O-LWc2A8Pq9CezwLzfdt" name="페이지-1">
    <mxGraphModel dx="3219" dy="1193" grid="1" gridSize="10" guides="1" tooltips="1" connect="1" arrows="1" fold="1" page="1" pageScale="1" pageWidth="827" pageHeight="1169" math="0" shadow="0">
      <root>
        <mxCell id="0" />
        <mxCell id="1" parent="0" />
        <mxCell id="T3gqKkbkDz2L_3jhAisM-148" style="edgeStyle=orthogonalEdgeStyle;rounded=0;orthogonalLoop=1;jettySize=auto;html=1;entryX=0.5;entryY=0;entryDx=0;entryDy=0;" edge="1" parent="1" source="qAUqQl3StZBXr3iRBp-v-3" target="qAUqQl3StZBXr3iRBp-v-4">
          <mxGeometry relative="1" as="geometry" />
        </mxCell>
        <mxCell id="qAUqQl3StZBXr3iRBp-v-3" value="루트" style="rounded=0;whiteSpace=wrap;html=1;" parent="1" vertex="1">
          <mxGeometry x="-350" width="120" height="60" as="geometry" />
        </mxCell>
        <mxCell id="T3gqKkbkDz2L_3jhAisM-149" style="edgeStyle=orthogonalEdgeStyle;rounded=0;orthogonalLoop=1;jettySize=auto;html=1;entryX=0.5;entryY=0;entryDx=0;entryDy=0;" edge="1" parent="1" source="qAUqQl3StZBXr3iRBp-v-4" target="T3gqKkbkDz2L_3jhAisM-67">
          <mxGeometry relative="1" as="geometry" />
        </mxCell>
        <mxCell id="qAUqQl3StZBXr3iRBp-v-4" value="반복" style="rounded=0;whiteSpace=wrap;html=1;" parent="1" vertex="1">
          <mxGeometry x="-350" y="100" width="120" height="60" as="geometry" />
        </mxCell>
        <mxCell id="T3gqKkbkDz2L_3jhAisM-31" style="edgeStyle=orthogonalEdgeStyle;rounded=0;orthogonalLoop=1;jettySize=auto;html=1;entryX=0.5;entryY=0;entryDx=0;entryDy=0;" edge="1" parent="1" source="T3gqKkbkDz2L_3jhAisM-30" target="T3gqKkbkDz2L_3jhAisM-32">
          <mxGeometry relative="1" as="geometry">
            <mxPoint x="-750" y="500" as="targetPoint" />
          </mxGeometry>
        </mxCell>
        <mxCell id="T3gqKkbkDz2L_3jhAisM-30" value="전투에 승리했나" style="strokeWidth=2;html=1;shape=mxgraph.flowchart.decision;whiteSpace=wrap;" vertex="1" parent="1">
          <mxGeometry x="-800" y="350" width="100" height="100" as="geometry" />
        </mxCell>
        <mxCell id="T3gqKkbkDz2L_3jhAisM-32" value="승리모션" style="rounded=0;whiteSpace=wrap;html=1;" vertex="1" parent="1">
          <mxGeometry x="-810" y="490" width="120" height="60" as="geometry" />
        </mxCell>
        <mxCell id="T3gqKkbkDz2L_3jhAisM-55" style="edgeStyle=orthogonalEdgeStyle;rounded=0;orthogonalLoop=1;jettySize=auto;html=1;entryX=0.5;entryY=0;entryDx=0;entryDy=0;entryPerimeter=0;" edge="1" parent="1" source="T3gqKkbkDz2L_3jhAisM-36" target="T3gqKkbkDz2L_3jhAisM-54">
          <mxGeometry relative="1" as="geometry">
            <Array as="points">
              <mxPoint x="-440" y="580" />
              <mxPoint x="-560" y="580" />
            </Array>
          </mxGeometry>
        </mxCell>
        <mxCell id="T3gqKkbkDz2L_3jhAisM-63" style="edgeStyle=orthogonalEdgeStyle;rounded=0;orthogonalLoop=1;jettySize=auto;html=1;entryX=0.5;entryY=0;entryDx=0;entryDy=0;" edge="1" parent="1" source="T3gqKkbkDz2L_3jhAisM-36" target="T3gqKkbkDz2L_3jhAisM-62">
          <mxGeometry relative="1" as="geometry">
            <Array as="points">
              <mxPoint x="-440" y="580" />
              <mxPoint x="-353" y="580" />
            </Array>
          </mxGeometry>
        </mxCell>
        <mxCell id="T3gqKkbkDz2L_3jhAisM-36" value="select" style="rounded=0;whiteSpace=wrap;html=1;" vertex="1" parent="1">
          <mxGeometry x="-499.5" y="490" width="120" height="60" as="geometry" />
        </mxCell>
        <mxCell id="T3gqKkbkDz2L_3jhAisM-53" style="edgeStyle=orthogonalEdgeStyle;rounded=0;orthogonalLoop=1;jettySize=auto;html=1;entryX=0.5;entryY=0;entryDx=0;entryDy=0;" edge="1" parent="1" source="T3gqKkbkDz2L_3jhAisM-37" target="T3gqKkbkDz2L_3jhAisM-36">
          <mxGeometry relative="1" as="geometry" />
        </mxCell>
        <mxCell id="T3gqKkbkDz2L_3jhAisM-37" value="데미지를 입었나" style="strokeWidth=2;html=1;shape=mxgraph.flowchart.decision;whiteSpace=wrap;" vertex="1" parent="1">
          <mxGeometry x="-490" y="350" width="100" height="100" as="geometry" />
        </mxCell>
        <mxCell id="T3gqKkbkDz2L_3jhAisM-41" value="지속딜 피격 Action" style="rounded=0;whiteSpace=wrap;html=1;" vertex="1" parent="1">
          <mxGeometry x="-758" y="990" width="120" height="60" as="geometry" />
        </mxCell>
        <mxCell id="T3gqKkbkDz2L_3jhAisM-46" style="edgeStyle=orthogonalEdgeStyle;rounded=0;orthogonalLoop=1;jettySize=auto;html=1;exitX=0.5;exitY=1;exitDx=0;exitDy=0;exitPerimeter=0;" edge="1" parent="1" source="T3gqKkbkDz2L_3jhAisM-42" target="T3gqKkbkDz2L_3jhAisM-41">
          <mxGeometry relative="1" as="geometry" />
        </mxCell>
        <mxCell id="T3gqKkbkDz2L_3jhAisM-42" value="지속딜인가" style="strokeWidth=2;html=1;shape=mxgraph.flowchart.decision;whiteSpace=wrap;" vertex="1" parent="1">
          <mxGeometry x="-748" y="870" width="100" height="100" as="geometry" />
        </mxCell>
        <mxCell id="T3gqKkbkDz2L_3jhAisM-44" value="그로기 Action" style="rounded=0;whiteSpace=wrap;html=1;" vertex="1" parent="1">
          <mxGeometry x="-619.5" y="990" width="120" height="60" as="geometry" />
        </mxCell>
        <mxCell id="T3gqKkbkDz2L_3jhAisM-48" style="edgeStyle=orthogonalEdgeStyle;rounded=0;orthogonalLoop=1;jettySize=auto;html=1;exitX=0.5;exitY=1;exitDx=0;exitDy=0;" edge="1" parent="1" source="T3gqKkbkDz2L_3jhAisM-44" target="T3gqKkbkDz2L_3jhAisM-44">
          <mxGeometry relative="1" as="geometry" />
        </mxCell>
        <mxCell id="T3gqKkbkDz2L_3jhAisM-59" style="edgeStyle=orthogonalEdgeStyle;rounded=0;orthogonalLoop=1;jettySize=auto;html=1;exitX=0.5;exitY=1;exitDx=0;exitDy=0;exitPerimeter=0;entryX=0.5;entryY=0;entryDx=0;entryDy=0;" edge="1" parent="1" source="T3gqKkbkDz2L_3jhAisM-54" target="T3gqKkbkDz2L_3jhAisM-58">
          <mxGeometry relative="1" as="geometry" />
        </mxCell>
        <mxCell id="T3gqKkbkDz2L_3jhAisM-54" value="체력이 존재하나" style="strokeWidth=2;html=1;shape=mxgraph.flowchart.decision;whiteSpace=wrap;" vertex="1" parent="1">
          <mxGeometry x="-610" y="610" width="100" height="100" as="geometry" />
        </mxCell>
        <mxCell id="T3gqKkbkDz2L_3jhAisM-60" style="edgeStyle=orthogonalEdgeStyle;rounded=0;orthogonalLoop=1;jettySize=auto;html=1;entryX=0.5;entryY=0;entryDx=0;entryDy=0;entryPerimeter=0;" edge="1" parent="1" source="T3gqKkbkDz2L_3jhAisM-58" target="T3gqKkbkDz2L_3jhAisM-42">
          <mxGeometry relative="1" as="geometry">
            <Array as="points">
              <mxPoint x="-560" y="830" />
              <mxPoint x="-698" y="830" />
            </Array>
          </mxGeometry>
        </mxCell>
        <mxCell id="T3gqKkbkDz2L_3jhAisM-85" style="edgeStyle=orthogonalEdgeStyle;rounded=0;orthogonalLoop=1;jettySize=auto;html=1;entryX=0.5;entryY=0;entryDx=0;entryDy=0;entryPerimeter=0;" edge="1" parent="1" source="T3gqKkbkDz2L_3jhAisM-58" target="T3gqKkbkDz2L_3jhAisM-84">
          <mxGeometry relative="1" as="geometry" />
        </mxCell>
        <mxCell id="T3gqKkbkDz2L_3jhAisM-117" style="edgeStyle=orthogonalEdgeStyle;rounded=0;orthogonalLoop=1;jettySize=auto;html=1;entryX=0.5;entryY=0;entryDx=0;entryDy=0;entryPerimeter=0;" edge="1" parent="1" source="T3gqKkbkDz2L_3jhAisM-58" target="T3gqKkbkDz2L_3jhAisM-114">
          <mxGeometry relative="1" as="geometry">
            <Array as="points">
              <mxPoint x="-560" y="830" />
              <mxPoint x="-830" y="830" />
            </Array>
          </mxGeometry>
        </mxCell>
        <mxCell id="T3gqKkbkDz2L_3jhAisM-58" value="select" style="rounded=0;whiteSpace=wrap;html=1;" vertex="1" parent="1">
          <mxGeometry x="-620" y="730" width="120" height="60" as="geometry" />
        </mxCell>
        <mxCell id="T3gqKkbkDz2L_3jhAisM-62" value="사망Action" style="rounded=0;whiteSpace=wrap;html=1;" vertex="1" parent="1">
          <mxGeometry x="-413" y="620" width="120" height="60" as="geometry" />
        </mxCell>
        <mxCell id="T3gqKkbkDz2L_3jhAisM-68" style="edgeStyle=orthogonalEdgeStyle;rounded=0;orthogonalLoop=1;jettySize=auto;html=1;entryX=0.5;entryY=0;entryDx=0;entryDy=0;entryPerimeter=0;exitX=0.5;exitY=1;exitDx=0;exitDy=0;" edge="1" parent="1" source="T3gqKkbkDz2L_3jhAisM-67" target="T3gqKkbkDz2L_3jhAisM-37">
          <mxGeometry relative="1" as="geometry">
            <Array as="points">
              <mxPoint x="-290" y="300" />
              <mxPoint x="-440" y="300" />
            </Array>
          </mxGeometry>
        </mxCell>
        <mxCell id="T3gqKkbkDz2L_3jhAisM-70" style="edgeStyle=orthogonalEdgeStyle;rounded=0;orthogonalLoop=1;jettySize=auto;html=1;entryX=0.5;entryY=0;entryDx=0;entryDy=0;entryPerimeter=0;exitX=0.5;exitY=1;exitDx=0;exitDy=0;" edge="1" parent="1" source="T3gqKkbkDz2L_3jhAisM-67" target="T3gqKkbkDz2L_3jhAisM-69">
          <mxGeometry relative="1" as="geometry">
            <Array as="points">
              <mxPoint x="-290" y="300" />
              <mxPoint x="-150" y="300" />
            </Array>
          </mxGeometry>
        </mxCell>
        <mxCell id="T3gqKkbkDz2L_3jhAisM-81" style="edgeStyle=orthogonalEdgeStyle;rounded=0;orthogonalLoop=1;jettySize=auto;html=1;entryX=0.5;entryY=0;entryDx=0;entryDy=0;exitX=0.5;exitY=1;exitDx=0;exitDy=0;" edge="1" parent="1" source="T3gqKkbkDz2L_3jhAisM-67" target="T3gqKkbkDz2L_3jhAisM-80">
          <mxGeometry relative="1" as="geometry">
            <mxPoint x="-160" y="220" as="sourcePoint" />
            <Array as="points">
              <mxPoint x="-290" y="300" />
              <mxPoint x="90" y="300" />
            </Array>
          </mxGeometry>
        </mxCell>
        <mxCell id="T3gqKkbkDz2L_3jhAisM-82" style="edgeStyle=orthogonalEdgeStyle;rounded=0;orthogonalLoop=1;jettySize=auto;html=1;entryX=0.5;entryY=0;entryDx=0;entryDy=0;entryPerimeter=0;" edge="1" parent="1" source="T3gqKkbkDz2L_3jhAisM-67" target="T3gqKkbkDz2L_3jhAisM-30">
          <mxGeometry relative="1" as="geometry">
            <Array as="points">
              <mxPoint x="-290" y="300" />
              <mxPoint x="-750" y="300" />
            </Array>
          </mxGeometry>
        </mxCell>
        <mxCell id="T3gqKkbkDz2L_3jhAisM-67" value="select" style="rounded=0;whiteSpace=wrap;html=1;" vertex="1" parent="1">
          <mxGeometry x="-350" y="200" width="120" height="60" as="geometry" />
        </mxCell>
        <mxCell id="T3gqKkbkDz2L_3jhAisM-96" style="edgeStyle=orthogonalEdgeStyle;rounded=0;orthogonalLoop=1;jettySize=auto;html=1;" edge="1" parent="1" source="T3gqKkbkDz2L_3jhAisM-69" target="T3gqKkbkDz2L_3jhAisM-75">
          <mxGeometry relative="1" as="geometry" />
        </mxCell>
        <mxCell id="T3gqKkbkDz2L_3jhAisM-69" value="내 순서가 맞는가" style="strokeWidth=2;html=1;shape=mxgraph.flowchart.decision;whiteSpace=wrap;" vertex="1" parent="1">
          <mxGeometry x="-200" y="350" width="100" height="100" as="geometry" />
        </mxCell>
        <mxCell id="T3gqKkbkDz2L_3jhAisM-97" style="edgeStyle=orthogonalEdgeStyle;rounded=0;orthogonalLoop=1;jettySize=auto;html=1;" edge="1" parent="1" source="T3gqKkbkDz2L_3jhAisM-75" target="T3gqKkbkDz2L_3jhAisM-79">
          <mxGeometry relative="1" as="geometry" />
        </mxCell>
        <mxCell id="T3gqKkbkDz2L_3jhAisM-122" style="edgeStyle=orthogonalEdgeStyle;rounded=0;orthogonalLoop=1;jettySize=auto;html=1;" edge="1" parent="1" source="T3gqKkbkDz2L_3jhAisM-75" target="T3gqKkbkDz2L_3jhAisM-121">
          <mxGeometry relative="1" as="geometry">
            <Array as="points">
              <mxPoint x="-150" y="560" />
              <mxPoint x="80" y="560" />
            </Array>
          </mxGeometry>
        </mxCell>
        <mxCell id="T3gqKkbkDz2L_3jhAisM-75" value="공격종류 select" style="rounded=0;whiteSpace=wrap;html=1;" vertex="1" parent="1">
          <mxGeometry x="-210" y="480" width="120" height="60" as="geometry" />
        </mxCell>
        <mxCell id="T3gqKkbkDz2L_3jhAisM-77" value="일반공격" style="rounded=0;whiteSpace=wrap;html=1;" vertex="1" parent="1">
          <mxGeometry x="550" y="959" width="120" height="60" as="geometry" />
        </mxCell>
        <mxCell id="T3gqKkbkDz2L_3jhAisM-118" style="edgeStyle=orthogonalEdgeStyle;rounded=0;orthogonalLoop=1;jettySize=auto;html=1;exitX=0.5;exitY=1;exitDx=0;exitDy=0;exitPerimeter=0;entryX=0.5;entryY=0;entryDx=0;entryDy=0;" edge="1" parent="1" source="T3gqKkbkDz2L_3jhAisM-79" target="T3gqKkbkDz2L_3jhAisM-95">
          <mxGeometry relative="1" as="geometry" />
        </mxCell>
        <mxCell id="T3gqKkbkDz2L_3jhAisM-79" value="스킬공격가능한가" style="strokeWidth=2;html=1;shape=mxgraph.flowchart.decision;whiteSpace=wrap;" vertex="1" parent="1">
          <mxGeometry x="-200" y="580" width="100" height="100" as="geometry" />
        </mxCell>
        <mxCell id="T3gqKkbkDz2L_3jhAisM-80" value="Idle" style="rounded=0;whiteSpace=wrap;html=1;" vertex="1" parent="1">
          <mxGeometry x="30" y="380" width="120" height="60" as="geometry" />
        </mxCell>
        <mxCell id="T3gqKkbkDz2L_3jhAisM-86" style="edgeStyle=orthogonalEdgeStyle;rounded=0;orthogonalLoop=1;jettySize=auto;html=1;exitX=0.5;exitY=1;exitDx=0;exitDy=0;exitPerimeter=0;" edge="1" parent="1" source="T3gqKkbkDz2L_3jhAisM-84" target="T3gqKkbkDz2L_3jhAisM-44">
          <mxGeometry relative="1" as="geometry" />
        </mxCell>
        <mxCell id="T3gqKkbkDz2L_3jhAisM-84" value="그로기인가" style="strokeWidth=2;html=1;shape=mxgraph.flowchart.decision;whiteSpace=wrap;" vertex="1" parent="1">
          <mxGeometry x="-609.5" y="870" width="100" height="100" as="geometry" />
        </mxCell>
        <mxCell id="T3gqKkbkDz2L_3jhAisM-105" style="edgeStyle=orthogonalEdgeStyle;rounded=0;orthogonalLoop=1;jettySize=auto;html=1;entryX=0.5;entryY=0;entryDx=0;entryDy=0;" edge="1" parent="1" source="T3gqKkbkDz2L_3jhAisM-89" target="T3gqKkbkDz2L_3jhAisM-102">
          <mxGeometry relative="1" as="geometry" />
        </mxCell>
        <mxCell id="T3gqKkbkDz2L_3jhAisM-89" value="범위 공격인가" style="strokeWidth=2;html=1;shape=mxgraph.flowchart.decision;whiteSpace=wrap;" vertex="1" parent="1">
          <mxGeometry x="-310.75" y="829" width="100" height="100" as="geometry" />
        </mxCell>
        <mxCell id="T3gqKkbkDz2L_3jhAisM-92" value="스킬공격" style="rounded=0;whiteSpace=wrap;html=1;" vertex="1" parent="1">
          <mxGeometry x="-240.75" y="1079" width="120" height="60" as="geometry" />
        </mxCell>
        <mxCell id="T3gqKkbkDz2L_3jhAisM-93" value="범위 탐색" style="rounded=0;whiteSpace=wrap;html=1;" vertex="1" parent="1">
          <mxGeometry x="-410.75" y="1079" width="120" height="60" as="geometry" />
        </mxCell>
        <mxCell id="T3gqKkbkDz2L_3jhAisM-107" style="edgeStyle=orthogonalEdgeStyle;rounded=0;orthogonalLoop=1;jettySize=auto;html=1;entryX=0.5;entryY=0;entryDx=0;entryDy=0;entryPerimeter=0;" edge="1" parent="1" source="T3gqKkbkDz2L_3jhAisM-95" target="T3gqKkbkDz2L_3jhAisM-89">
          <mxGeometry relative="1" as="geometry">
            <Array as="points">
              <mxPoint x="-150.75" y="799" />
              <mxPoint x="-260.75" y="799" />
            </Array>
          </mxGeometry>
        </mxCell>
        <mxCell id="T3gqKkbkDz2L_3jhAisM-109" style="edgeStyle=orthogonalEdgeStyle;rounded=0;orthogonalLoop=1;jettySize=auto;html=1;entryX=0.5;entryY=0;entryDx=0;entryDy=0;exitX=0.5;exitY=1;exitDx=0;exitDy=0;" edge="1" parent="1" source="T3gqKkbkDz2L_3jhAisM-95" target="T3gqKkbkDz2L_3jhAisM-110">
          <mxGeometry relative="1" as="geometry">
            <mxPoint x="-40.75" y="859" as="targetPoint" />
            <Array as="points">
              <mxPoint x="-151" y="799" />
              <mxPoint y="799" />
            </Array>
          </mxGeometry>
        </mxCell>
        <mxCell id="T3gqKkbkDz2L_3jhAisM-95" value="select" style="rounded=0;whiteSpace=wrap;html=1;" vertex="1" parent="1">
          <mxGeometry x="-210.75" y="719" width="120" height="60" as="geometry" />
        </mxCell>
        <mxCell id="T3gqKkbkDz2L_3jhAisM-125" style="edgeStyle=orthogonalEdgeStyle;rounded=0;orthogonalLoop=1;jettySize=auto;html=1;entryX=0.5;entryY=0;entryDx=0;entryDy=0;" edge="1" parent="1" source="T3gqKkbkDz2L_3jhAisM-99" target="T3gqKkbkDz2L_3jhAisM-136">
          <mxGeometry relative="1" as="geometry">
            <mxPoint x="300" y="940" as="targetPoint" />
          </mxGeometry>
        </mxCell>
        <mxCell id="T3gqKkbkDz2L_3jhAisM-99" value="범위 공격인가" style="strokeWidth=2;html=1;shape=mxgraph.flowchart.decision;whiteSpace=wrap;" vertex="1" parent="1">
          <mxGeometry x="220" y="810" width="100" height="100" as="geometry" />
        </mxCell>
        <mxCell id="T3gqKkbkDz2L_3jhAisM-103" style="edgeStyle=orthogonalEdgeStyle;rounded=0;orthogonalLoop=1;jettySize=auto;html=1;" edge="1" parent="1" source="T3gqKkbkDz2L_3jhAisM-102" target="T3gqKkbkDz2L_3jhAisM-93">
          <mxGeometry relative="1" as="geometry" />
        </mxCell>
        <mxCell id="T3gqKkbkDz2L_3jhAisM-104" style="edgeStyle=orthogonalEdgeStyle;rounded=0;orthogonalLoop=1;jettySize=auto;html=1;entryX=0.5;entryY=0;entryDx=0;entryDy=0;" edge="1" parent="1" source="T3gqKkbkDz2L_3jhAisM-102" target="T3gqKkbkDz2L_3jhAisM-92">
          <mxGeometry relative="1" as="geometry" />
        </mxCell>
        <mxCell id="T3gqKkbkDz2L_3jhAisM-102" value="sequence" style="rounded=0;whiteSpace=wrap;html=1;" vertex="1" parent="1">
          <mxGeometry x="-320.75" y="959" width="120" height="60" as="geometry" />
        </mxCell>
        <mxCell id="T3gqKkbkDz2L_3jhAisM-108" value="단일 탐색" style="rounded=0;whiteSpace=wrap;html=1;" vertex="1" parent="1">
          <mxGeometry x="-160.75" y="959" width="120" height="60" as="geometry" />
        </mxCell>
        <mxCell id="T3gqKkbkDz2L_3jhAisM-111" style="edgeStyle=orthogonalEdgeStyle;rounded=0;orthogonalLoop=1;jettySize=auto;html=1;entryX=0.5;entryY=0;entryDx=0;entryDy=0;" edge="1" parent="1" source="T3gqKkbkDz2L_3jhAisM-110" target="T3gqKkbkDz2L_3jhAisM-108">
          <mxGeometry relative="1" as="geometry" />
        </mxCell>
        <mxCell id="T3gqKkbkDz2L_3jhAisM-113" style="edgeStyle=orthogonalEdgeStyle;rounded=0;orthogonalLoop=1;jettySize=auto;html=1;" edge="1" parent="1" source="T3gqKkbkDz2L_3jhAisM-110" target="T3gqKkbkDz2L_3jhAisM-112">
          <mxGeometry relative="1" as="geometry" />
        </mxCell>
        <mxCell id="T3gqKkbkDz2L_3jhAisM-110" value="sequence" style="rounded=0;whiteSpace=wrap;html=1;" vertex="1" parent="1">
          <mxGeometry x="-60" y="839" width="120" height="60" as="geometry" />
        </mxCell>
        <mxCell id="T3gqKkbkDz2L_3jhAisM-112" value="스킬공격" style="rounded=0;whiteSpace=wrap;html=1;" vertex="1" parent="1">
          <mxGeometry x="50" y="959" width="120" height="60" as="geometry" />
        </mxCell>
        <mxCell id="T3gqKkbkDz2L_3jhAisM-116" style="edgeStyle=orthogonalEdgeStyle;rounded=0;orthogonalLoop=1;jettySize=auto;html=1;entryX=0.5;entryY=0;entryDx=0;entryDy=0;" edge="1" parent="1" source="T3gqKkbkDz2L_3jhAisM-114" target="T3gqKkbkDz2L_3jhAisM-115">
          <mxGeometry relative="1" as="geometry" />
        </mxCell>
        <mxCell id="T3gqKkbkDz2L_3jhAisM-114" value="타격당했나" style="strokeWidth=2;html=1;shape=mxgraph.flowchart.decision;whiteSpace=wrap;" vertex="1" parent="1">
          <mxGeometry x="-880" y="870" width="100" height="100" as="geometry" />
        </mxCell>
        <mxCell id="T3gqKkbkDz2L_3jhAisM-115" value="기본 피격 Action" style="rounded=0;whiteSpace=wrap;html=1;" vertex="1" parent="1">
          <mxGeometry x="-890" y="990" width="120" height="60" as="geometry" />
        </mxCell>
        <mxCell id="T3gqKkbkDz2L_3jhAisM-131" style="edgeStyle=orthogonalEdgeStyle;rounded=0;orthogonalLoop=1;jettySize=auto;html=1;entryX=0.5;entryY=0;entryDx=0;entryDy=0;" edge="1" parent="1" source="T3gqKkbkDz2L_3jhAisM-121" target="T3gqKkbkDz2L_3jhAisM-129">
          <mxGeometry relative="1" as="geometry">
            <Array as="points">
              <mxPoint x="80" y="720" />
              <mxPoint x="511" y="720" />
            </Array>
          </mxGeometry>
        </mxCell>
        <mxCell id="T3gqKkbkDz2L_3jhAisM-137" style="edgeStyle=orthogonalEdgeStyle;rounded=0;orthogonalLoop=1;jettySize=auto;html=1;entryX=0.5;entryY=0;entryDx=0;entryDy=0;entryPerimeter=0;" edge="1" parent="1" source="T3gqKkbkDz2L_3jhAisM-121" target="T3gqKkbkDz2L_3jhAisM-99">
          <mxGeometry relative="1" as="geometry">
            <Array as="points">
              <mxPoint x="80" y="720" />
              <mxPoint x="270" y="720" />
            </Array>
          </mxGeometry>
        </mxCell>
        <mxCell id="T3gqKkbkDz2L_3jhAisM-121" value="select" style="rounded=0;whiteSpace=wrap;html=1;" vertex="1" parent="1">
          <mxGeometry x="20" y="590" width="120" height="60" as="geometry" />
        </mxCell>
        <mxCell id="T3gqKkbkDz2L_3jhAisM-126" value="단일 탐색" style="rounded=0;whiteSpace=wrap;html=1;" vertex="1" parent="1">
          <mxGeometry x="350" y="959" width="120" height="60" as="geometry" />
        </mxCell>
        <mxCell id="T3gqKkbkDz2L_3jhAisM-127" style="edgeStyle=orthogonalEdgeStyle;rounded=0;orthogonalLoop=1;jettySize=auto;html=1;entryX=0.5;entryY=0;entryDx=0;entryDy=0;" edge="1" parent="1" source="T3gqKkbkDz2L_3jhAisM-129" target="T3gqKkbkDz2L_3jhAisM-126">
          <mxGeometry relative="1" as="geometry" />
        </mxCell>
        <mxCell id="T3gqKkbkDz2L_3jhAisM-128" style="edgeStyle=orthogonalEdgeStyle;rounded=0;orthogonalLoop=1;jettySize=auto;html=1;entryX=0.5;entryY=0;entryDx=0;entryDy=0;" edge="1" parent="1" source="T3gqKkbkDz2L_3jhAisM-129" target="T3gqKkbkDz2L_3jhAisM-77">
          <mxGeometry relative="1" as="geometry">
            <mxPoint x="620.7499999999995" y="959" as="targetPoint" />
          </mxGeometry>
        </mxCell>
        <mxCell id="T3gqKkbkDz2L_3jhAisM-129" value="sequence" style="rounded=0;whiteSpace=wrap;html=1;" vertex="1" parent="1">
          <mxGeometry x="450.75" y="839" width="120" height="60" as="geometry" />
        </mxCell>
        <mxCell id="T3gqKkbkDz2L_3jhAisM-132" value="스킬공격" style="rounded=0;whiteSpace=wrap;html=1;" vertex="1" parent="1">
          <mxGeometry x="290" y="1079" width="120" height="60" as="geometry" />
        </mxCell>
        <mxCell id="T3gqKkbkDz2L_3jhAisM-133" value="범위 탐색" style="rounded=0;whiteSpace=wrap;html=1;" vertex="1" parent="1">
          <mxGeometry x="120" y="1079" width="120" height="60" as="geometry" />
        </mxCell>
        <mxCell id="T3gqKkbkDz2L_3jhAisM-134" style="edgeStyle=orthogonalEdgeStyle;rounded=0;orthogonalLoop=1;jettySize=auto;html=1;" edge="1" parent="1" source="T3gqKkbkDz2L_3jhAisM-136" target="T3gqKkbkDz2L_3jhAisM-133">
          <mxGeometry relative="1" as="geometry" />
        </mxCell>
        <mxCell id="T3gqKkbkDz2L_3jhAisM-135" style="edgeStyle=orthogonalEdgeStyle;rounded=0;orthogonalLoop=1;jettySize=auto;html=1;entryX=0.5;entryY=0;entryDx=0;entryDy=0;" edge="1" parent="1" source="T3gqKkbkDz2L_3jhAisM-136" target="T3gqKkbkDz2L_3jhAisM-132">
          <mxGeometry relative="1" as="geometry" />
        </mxCell>
        <mxCell id="T3gqKkbkDz2L_3jhAisM-136" value="sequence" style="rounded=0;whiteSpace=wrap;html=1;" vertex="1" parent="1">
          <mxGeometry x="210" y="959" width="120" height="60" as="geometry" />
        </mxCell>
      </root>
    </mxGraphModel>
  </diagram>
</mxfile>
